<svg version="1.1" viewBox="0 0 128 128" xmlns="http://www.w3.org/2000/svg" xmlns:xlink="http://www.w3.org/1999/xlink">
 <defs>
  <filter id="b" x="-.50541" y="-.30367" width="1.9819" height="1.6073" color-interpolation-filters="sRGB">
   <feFlood flood-color="rgb(0,0,0)" result="flood"/>
   <feComposite in="flood" in2="SourceGraphic" operator="in" result="composite1"/>
   <feGaussianBlur result="blur" stdDeviation="15"/>
   <feOffset dx="0" dy="0" in="blur" result="offset"/>
   <feComposite in="SourceGraphic" in2="offset" result="composite2"/>
  </filter>
  <radialGradient id="a" cx="125.9" cy="-53.584" r="126.87" gradientTransform="matrix(.49971 0 0 .5113 -.0094072 -31.323)" gradientUnits="userSpaceOnUse">
   <stop stop-color="#606577" offset="0"/>
   <stop stop-color="#3b404c" offset=".5"/>
   <stop stop-color="#272c34" offset="1"/>
  </radialGradient>
 </defs>
 <rect transform="scale(1,-1)" x="1.9809" y="-126.02" width="124.04" height="124.04" ry="23.635" fill="url(#a)" style="paint-order:stroke fill markers"/>
 <path d="m92.571 14.612q4.9204 0 9.2259 1.3647 4.3053 1.3647 6.7655 4.8017 2.4602 3.3864 1.8451 9.6033l-1.7573 19.308q-0.48324 5.1555 2.3284 7.8848 2.8116 2.7294 10.939 2.7294v6.7729q-8.0835 0-10.939 2.7799-2.8116 2.7799-2.3284 7.9354l1.7573 19.207q0.57112 6.2169-1.8891 9.6033-2.4163 3.437-6.7216 4.8017-4.3055 1.3647-9.2259 1.3647v-6.6718q3.207 0 5.799-0.70762 2.636-0.70761 4.0858-2.4766 1.4498-1.769 1.1862-4.9028l-1.8452-20.723q-0.61505-6.7223 1.5816-9.6539 2.2405-2.9315 7.6002-3.8413-5.184-1.0109-7.4684-4.1446-2.2844-3.1843-1.7133-9.5528l1.8452-20.723q0.26359-3.0832-1.1862-4.8522-1.4498-1.769-4.0419-2.4767-2.592-0.75816-5.843-0.75816z" fill-opacity=".79713" style="paint-order:stroke fill markers"/>
 <path d="m88.967 14.612c3.2803 0 6.3555 0.4549 9.2257 1.3647 2.8704 0.90979 5.1256 2.5103 6.7657 4.8017 1.6401 2.2576 2.2552 5.4587 1.8451 9.6033l-1.7573 19.308c-0.32217 3.437 0.45397 6.0653 2.3284 7.8848 1.8744 1.8196 5.5208 3.7331 10.939 3.7331v4.7655c-5.389 0-9.0354 1.9303-10.939 3.7836-1.8744 1.8533-2.6506 4.4984-2.3284 7.9354l1.7573 19.207c0.38075 4.1446-0.24894 7.3457-1.8891 9.6033-1.6108 2.2913-3.8514 3.8919-6.7218 4.8017-2.8702 0.90979-5.9455 1.3647-9.2257 1.3647v-6.6718c2.138 0 4.071-0.23588 5.799-0.70762 1.7573-0.47174 3.1192-1.2973 4.0857-2.4766 0.9665-1.1794 1.3619-2.8136 1.1862-4.9028l-1.8452-20.723c-0.41003-4.4815 0.11716-7.6995 1.5816-9.6539 1.4939-1.9544 4.0273-3.2348 7.6004-3.8413-3.456-0.67392-5.9455-2.0555-7.4686-4.1446-1.523-2.1228-2.0941-5.3071-1.7133-9.5528l1.8452-20.723c0.17575-2.0554-0.21967-3.6729-1.1862-4.8522-0.96652-1.1794-2.3138-2.0049-4.0418-2.4767-1.728-0.50544-3.6756-0.75816-5.8429-0.75816z" fill="#f8f9fa" style="paint-order:normal"/>
 <path d="m35.463 14.612v6.6718q-3.207 0-5.8429 0.75815-2.592 0.70762-4.0417 2.4767-1.4498 1.769-1.1862 4.8522l1.8451 20.723q0.57112 6.3685-1.5816 9.5022-2.1087 3.1337-6.6337 4.094 4.6129 0.96034 6.7216 3.9424 2.1087 2.9315 1.4937 9.6539l-1.8451 20.723q-0.2636 3.1337 1.1862 4.9028 1.4498 1.769 4.0417 2.4766 2.592 0.70762 5.8429 0.70762v6.6718q-4.9204 0-9.2257-1.3647-4.3053-1.3647-6.7655-4.8017-2.4602-3.3864-1.8451-9.6033l1.7573-19.207q0.35146-3.437-0.57111-5.8125-0.87864-2.4261-3.866-3.6392-2.9434-1.2636-8.8303-1.2636v-6.7729q5.8869 0 8.8303-1.2131 2.9874-1.2131 3.866-3.5886 0.92257-2.3756 0.57111-5.8125l-1.7573-19.308q-0.57112-6.2169 1.8451-9.6033 2.4602-3.437 6.7655-4.8017 4.3053-1.3647 9.2257-1.3647z" fill-opacity=".79713" style="paint-order:stroke fill markers"/>
 <path d="m38.788 14.612v6.6718c-2.138 0-4.0857 0.25272-5.843 0.75816-1.728 0.47174-3.0752 1.2973-4.0417 2.4767-0.96651 1.1794-1.3619 2.7968-1.1862 4.8522l1.8451 20.723c0.38074 4.2457-0.14644 7.4131-1.5816 9.5022-1.4058 2.0891-3.6171 3.4538-6.6337 4.094 3.0752 0.64022 5.3158 1.9544 6.7216 3.9424 1.4058 1.9544 1.9037 5.1723 1.4937 9.6539l-1.8451 20.723c-0.17572 2.0891 0.21966 3.7234 1.1862 4.9028 0.9665 1.1794 2.3138 2.0049 4.0417 2.4766 1.728 0.47174 3.6756 0.70762 5.843 0.70762v6.6718c-3.2803 0-6.3555-0.4549-9.2257-1.3647-2.8702-0.90978-5.1254-2.5103-6.7655-4.8017-1.6401-2.2576-2.2552-5.4587-1.8451-9.6033l1.7573-19.207c0.23431-2.2913 0.04387-4.2288-0.57111-5.8125-0.58576-1.6174-1.8744-2.8305-3.866-3.6392-1.9623-0.8424-4.9057-2.2673-8.8303-2.2673v-4.7655c3.9246 0 6.868-1.4081 8.8303-2.2168 1.9916-0.8087 3.2803-2.0049 3.866-3.5886 0.61505-1.5837 0.80542-3.5212 0.57111-5.8125l-1.7573-19.308c-0.38074-4.1446 0.2343-7.3457 1.8451-9.6033 1.6401-2.2913 3.8953-3.8919 6.7655-4.8017 2.8702-0.90979 5.9455-1.3647 9.2257-1.3647z" fill="#f8f9fa" style="paint-order:normal"/>
 <path transform="matrix(.40366 0 0 .40366 61.606 15.416)" d="m51.503 56.487v92.265q0 13.529-5.188 25.126-5.188 11.495-16.479 18.616-11.19 7.019-29.5 7.019-11.597 0-21.464-3.3569-9.8673-3.3569-18.514-9.5622l9.6639-15.055q8.3415 5.3914 15.36 7.4259 7.1208 1.9328 14.038 1.9328 13.224 0 20.854-8.4432 7.7311-8.4432 7.7311-24.211v-73.649h-42.216v-18.107z" fill="#f8f9fa" filter="url(#b)" stroke="#050505" stroke-opacity=".79918" stroke-width="14.864" style="paint-order:stroke fill markers"/>
</svg>
